{
    "asset" : {
        "generator" : "Khronos glTF Blender I/O v1.5.17",
        "version" : "2.0"
    },
    "scene" : 0,
    "scenes" : [
        {
            "name" : "Scene",
            "nodes" : [
                0
            ]
        }
    ],
    "nodes" : [
        {
            "mesh" : 0,
            "name" : "Fire3",
            "translation" : [
                -10.03194522857666,
                1.0143873691558838,
                -13.260807991027832
            ]
        }
    ],
    "materials" : [
        {
            "doubleSided" : true,
            "name" : "Material.008",
            "pbrMetallicRoughness" : {
                "baseColorFactor" : [
                    0.6038269996643066,
                    0.7454044222831726,
                    1,
                    1
                ],
                "metallicFactor" : 0,
                "roughnessFactor" : 0.5
            }
        },
        {
            "doubleSided" : true,
            "name" : "Material.009",
            "pbrMetallicRoughness" : {
                "baseColorFactor" : [
                    1,
                    0.5356714725494385,
                    0.017728667706251144,
                    1
                ],
                "metallicFactor" : 0,
                "roughnessFactor" : 0.5
            }
        },
        {
            "doubleSided" : true,
            "name" : "Material.010",
            "pbrMetallicRoughness" : {
                "baseColorFactor" : [
                    0.5596006512641907,
                    0.004098044708371162,
                    0.004098108038306236,
                    1
                ],
                "metallicFactor" : 0,
                "roughnessFactor" : 0.5
            }
        }
    ],
    "meshes" : [
        {
            "name" : "Cylinder.006",
            "primitives" : [
                {
                    "attributes" : {
                        "POSITION" : 0,
                        "NORMAL" : 1,
                        "TEXCOORD_0" : 2
                    },
                    "indices" : 3,
                    "material" : 0
                },
                {
                    "attributes" : {
                        "POSITION" : 4,
                        "NORMAL" : 5,
                        "TEXCOORD_0" : 6
                    },
                    "indices" : 7,
                    "material" : 1
                },
                {
                    "attributes" : {
                        "POSITION" : 8,
                        "NORMAL" : 9,
                        "TEXCOORD_0" : 10
                    },
                    "indices" : 11,
                    "material" : 2
                }
            ]
        }
    ],
    "accessors" : [
        {
            "bufferView" : 0,
            "componentType" : 5126,
            "count" : 590,
            "max" : [
                4,
                9.224828720092773,
                4
            ],
            "min" : [
                -4,
                -1,
                -4
            ],
            "type" : "VEC3"
        },
        {
            "bufferView" : 1,
            "componentType" : 5126,
            "count" : 590,
            "type" : "VEC3"
        },
        {
            "bufferView" : 2,
            "componentType" : 5126,
            "count" : 590,
            "type" : "VEC2"
        },
        {
            "bufferView" : 3,
            "componentType" : 5123,
            "count" : 948,
            "type" : "SCALAR"
        },
        {
            "bufferView" : 4,
            "componentType" : 5126,
            "count" : 188,
            "max" : [
                3.179764986038208,
                7.797545433044434,
                3.179764986038208
            ],
            "min" : [
                -3.179764986038208,
                3.633816719055176,
                -3.179764986038208
            ],
            "type" : "VEC3"
        },
        {
            "bufferView" : 5,
            "componentType" : 5126,
            "count" : 188,
            "type" : "VEC3"
        },
        {
            "bufferView" : 6,
            "componentType" : 5126,
            "count" : 188,
            "type" : "VEC2"
        },
        {
            "bufferView" : 7,
            "componentType" : 5123,
            "count" : 288,
            "type" : "SCALAR"
        },
        {
            "bufferView" : 8,
            "componentType" : 5126,
            "count" : 304,
            "max" : [
                2.830629825592041,
                5.726052761077881,
                2.830629825592041
            ],
            "min" : [
                -2.83063006401062,
                2.3806443214416504,
                -2.830629825592041
            ],
            "type" : "VEC3"
        },
        {
            "bufferView" : 9,
            "componentType" : 5126,
            "count" : 304,
            "type" : "VEC3"
        },
        {
            "bufferView" : 10,
            "componentType" : 5126,
            "count" : 304,
            "type" : "VEC2"
        },
        {
            "bufferView" : 11,
            "componentType" : 5123,
            "count" : 480,
            "type" : "SCALAR"
        }
    ],
    "bufferViews" : [
        {
            "buffer" : 0,
            "byteLength" : 7080,
            "byteOffset" : 0
        },
        {
            "buffer" : 0,
            "byteLength" : 7080,
            "byteOffset" : 7080
        },
        {
            "buffer" : 0,
            "byteLength" : 4720,
            "byteOffset" : 14160
        },
        {
            "buffer" : 0,
            "byteLength" : 1896,
            "byteOffset" : 18880
        },
        {
            "buffer" : 0,
            "byteLength" : 2256,
            "byteOffset" : 20776
        },
        {
            "buffer" : 0,
            "byteLength" : 2256,
            "byteOffset" : 23032
        },
        {
            "buffer" : 0,
            "byteLength" : 1504,
            "byteOffset" : 25288
        },
        {
            "buffer" : 0,
            "byteLength" : 576,
            "byteOffset" : 26792
        },
        {
            "buffer" : 0,
            "byteLength" : 3648,
            "byteOffset" : 27368
        },
        {
            "buffer" : 0,
            "byteLength" : 3648,
            "byteOffset" : 31016
        },
        {
            "buffer" : 0,
            "byteLength" : 2432,
            "byteOffset" : 34664
        },
        {
            "buffer" : 0,
            "byteLength" : 960,
            "byteOffset" : 37096
        }
    ],
    "buffers" : [
        {
            "byteLength" : 38056,
            "uri" : "data:application/octet-stream;base64,"
        }
    ]
}
