{
    "asset" : {
        "generator" : "Khronos glTF Blender I/O v1.5.17",
        "version" : "2.0"
    },
    "scene" : 0,
    "scenes" : [
        {
            "name" : "Scene",
            "nodes" : [
                0
            ]
        }
    ],
    "nodes" : [
        {
            "mesh" : 0,
            "name" : "Fire2",
            "translation" : [
                -0.0011045709252357483,
                1.0143873691558838,
                -13.260807991027832
            ]
        }
    ],
    "materials" : [
        {
            "doubleSided" : true,
            "name" : "Material.008",
            "pbrMetallicRoughness" : {
                "baseColorFactor" : [
                    0.6038269996643066,
                    0.7454044222831726,
                    1,
                    1
                ],
                "metallicFactor" : 0,
                "roughnessFactor" : 0.5
            }
        },
        {
            "doubleSided" : true,
            "name" : "Material.009",
            "pbrMetallicRoughness" : {
                "baseColorFactor" : [
                    1,
                    0.5356714725494385,
                    0.017728667706251144,
                    1
                ],
                "metallicFactor" : 0,
                "roughnessFactor" : 0.5
            }
        }
    ],
    "meshes" : [
        {
            "name" : "Cylinder.005",
            "primitives" : [
                {
                    "attributes" : {
                        "POSITION" : 0,
                        "NORMAL" : 1,
                        "TEXCOORD_0" : 2
                    },
                    "indices" : 3,
                    "material" : 0
                },
                {
                    "attributes" : {
                        "POSITION" : 4,
                        "NORMAL" : 5,
                        "TEXCOORD_0" : 6
                    },
                    "indices" : 7,
                    "material" : 1
                }
            ]
        }
    ],
    "accessors" : [
        {
            "bufferView" : 0,
            "componentType" : 5126,
            "count" : 446,
            "max" : [
                4,
                9.224828720092773,
                4
            ],
            "min" : [
                -4,
                -1,
                -4
            ],
            "type" : "VEC3"
        },
        {
            "bufferView" : 1,
            "componentType" : 5126,
            "count" : 446,
            "type" : "VEC3"
        },
        {
            "bufferView" : 2,
            "componentType" : 5126,
            "count" : 446,
            "type" : "VEC2"
        },
        {
            "bufferView" : 3,
            "componentType" : 5123,
            "count" : 708,
            "type" : "SCALAR"
        },
        {
            "bufferView" : 4,
            "componentType" : 5126,
            "count" : 188,
            "max" : [
                3.179764986038208,
                7.797545433044434,
                3.179764986038208
            ],
            "min" : [
                -3.179764986038208,
                3.633816719055176,
                -3.179764986038208
            ],
            "type" : "VEC3"
        },
        {
            "bufferView" : 5,
            "componentType" : 5126,
            "count" : 188,
            "type" : "VEC3"
        },
        {
            "bufferView" : 6,
            "componentType" : 5126,
            "count" : 188,
            "type" : "VEC2"
        },
        {
            "bufferView" : 7,
            "componentType" : 5123,
            "count" : 288,
            "type" : "SCALAR"
        }
    ],
    "bufferViews" : [
        {
            "buffer" : 0,
            "byteLength" : 5352,
            "byteOffset" : 0
        },
        {
            "buffer" : 0,
            "byteLength" : 5352,
            "byteOffset" : 5352
        },
        {
            "buffer" : 0,
            "byteLength" : 3568,
            "byteOffset" : 10704
        },
        {
            "buffer" : 0,
            "byteLength" : 1416,
            "byteOffset" : 14272
        },
        {
            "buffer" : 0,
            "byteLength" : 2256,
            "byteOffset" : 15688
        },
        {
            "buffer" : 0,
            "byteLength" : 2256,
            "byteOffset" : 17944
        },
        {
            "buffer" : 0,
            "byteLength" : 1504,
            "byteOffset" : 20200
        },
        {
            "buffer" : 0,
            "byteLength" : 576,
            "byteOffset" : 21704
        }
    ],
    "buffers" : [
        {
            "byteLength" : 22280,
            "uri" : "data:application/octet-stream;base64,"
        }
    ]
}
