{
    "asset" : {
        "generator" : "Khronos glTF Blender I/O v1.5.17",
        "version" : "2.0"
    },
    "scene" : 0,
    "scenes" : [
        {
            "name" : "Scene",
            "nodes" : [
                0
            ]
        }
    ],
    "nodes" : [
        {
            "mesh" : 0,
            "name" : "Cylinder.001"
        }
    ],
    "materials" : [
        {
            "doubleSided" : true,
            "name" : "Material.003",
            "pbrMetallicRoughness" : {
                "baseColorFactor" : [
                    0.44875991344451904,
                    0.7771328091621399,
                    0.8000000715255737,
                    1
                ],
                "metallicFactor" : 0,
                "roughnessFactor" : 0.5
            }
        },
        {
            "doubleSided" : true,
            "name" : "Material.004",
            "pbrMetallicRoughness" : {
                "baseColorFactor" : [
                    0.003209769958630204,
                    0.032315563410520554,
                    0.03310273587703705,
                    1
                ],
                "metallicFactor" : 0,
                "roughnessFactor" : 0.5
            }
        }
    ],
    "meshes" : [
        {
            "name" : "Cylinder.001",
            "primitives" : [
                {
                    "attributes" : {
                        "POSITION" : 0,
                        "NORMAL" : 1,
                        "TEXCOORD_0" : 2
                    },
                    "indices" : 3,
                    "material" : 0
                },
                {
                    "attributes" : {
                        "POSITION" : 4,
                        "NORMAL" : 5,
                        "TEXCOORD_0" : 6
                    },
                    "indices" : 7,
                    "material" : 1
                }
            ]
        }
    ],
    "accessors" : [
        {
            "bufferView" : 0,
            "componentType" : 5126,
            "count" : 1035,
            "max" : [
                4.1094231605529785,
                9.32995891571045,
                4.1094231605529785
            ],
            "min" : [
                -4.1094231605529785,
                -1,
                -4.1094231605529785
            ],
            "type" : "VEC3"
        },
        {
            "bufferView" : 1,
            "componentType" : 5126,
            "count" : 1035,
            "type" : "VEC3"
        },
        {
            "bufferView" : 2,
            "componentType" : 5126,
            "count" : 1035,
            "type" : "VEC2"
        },
        {
            "bufferView" : 3,
            "componentType" : 5123,
            "count" : 1848,
            "type" : "SCALAR"
        },
        {
            "bufferView" : 4,
            "componentType" : 5126,
            "count" : 24,
            "max" : [
                2.688235282897949,
                3.5193569660186768,
                2.688235282897949
            ],
            "min" : [
                -2.688235282897949,
                1.5824897289276123,
                -2.68823504447937
            ],
            "type" : "VEC3"
        },
        {
            "bufferView" : 5,
            "componentType" : 5126,
            "count" : 24,
            "type" : "VEC3"
        },
        {
            "bufferView" : 6,
            "componentType" : 5126,
            "count" : 24,
            "type" : "VEC2"
        },
        {
            "bufferView" : 7,
            "componentType" : 5123,
            "count" : 48,
            "type" : "SCALAR"
        }
    ],
    "bufferViews" : [
        {
            "buffer" : 0,
            "byteLength" : 12420,
            "byteOffset" : 0
        },
        {
            "buffer" : 0,
            "byteLength" : 12420,
            "byteOffset" : 12420
        },
        {
            "buffer" : 0,
            "byteLength" : 8280,
            "byteOffset" : 24840
        },
        {
            "buffer" : 0,
            "byteLength" : 3696,
            "byteOffset" : 33120
        },
        {
            "buffer" : 0,
            "byteLength" : 288,
            "byteOffset" : 36816
        },
        {
            "buffer" : 0,
            "byteLength" : 288,
            "byteOffset" : 37104
        },
        {
            "buffer" : 0,
            "byteLength" : 192,
            "byteOffset" : 37392
        },
        {
            "buffer" : 0,
            "byteLength" : 96,
            "byteOffset" : 37584
        }
    ],
    "buffers" : [
        {
            "byteLength" : 37680,
            "uri" : "data:application/octet-stream;base64,"
        }
    ]
}
